<?xml version="1.0" encoding="UTF-8" standalone="no"?>
<!DOCTYPE svg PUBLIC "-//W3C//DTD SVG 1.1//EN" "http://www.w3.org/Graphics/SVG/1.1/DTD/svg11.dtd">
<svg width="100%" height="100%" viewBox="0 0 512 512" version="1.1" xmlns="http://www.w3.org/2000/svg" xmlns:xlink="http://www.w3.org/1999/xlink" xml:space="preserve" xmlns:serif="http://www.serif.com/" style="fill-rule:evenodd;clip-rule:evenodd;stroke-linejoin:round;stroke-miterlimit:1.41421;">
    <path d="M48,48C21.668,48 0,69.668 0,96C0,122.332 21.668,144 48,144C74.332,144 96,122.332 96,96C96,69.668 74.332,48 48,48ZM48,208C21.668,208 0,229.668 0,256C0,282.332 21.668,304 48,304C74.332,304 96,282.332 96,256C96,229.668 74.332,208 48,208ZM48,368C21.668,368 0,389.668 0,416C0,442.332 21.668,464 48,464C74.332,464 96,442.332 96,416C96,389.668 74.332,368 48,368ZM496,384L176,384C167.223,384 160,391.223 160,400L160,432C160,440.777 167.223,448 176,448L496,448C504.777,448 512,440.777 512,432L512,400C512,391.223 504.777,384 496,384ZM496,64L176,64C167.223,64 160,71.223 160,80L160,112C160,120.777 167.223,128 176,128L496,128C504.777,128 512,120.777 512,112L512,80C512,71.223 504.777,64 496,64ZM496,224L176,224C167.223,224 160,231.223 160,240L160,272C160,280.777 167.223,288 176,288L496,288C504.777,288 512,280.777 512,272L512,240C512,231.223 504.777,224 496,224Z" style="fill:rgb(235,89,37);fill-rule:nonzero;"/>
</svg>
