<?xml version="1.0" encoding="UTF-8" standalone="no"?>
<!DOCTYPE svg PUBLIC "-//W3C//DTD SVG 1.1//EN" "http://www.w3.org/Graphics/SVG/1.1/DTD/svg11.dtd">
<svg width="100%" height="100%" viewBox="0 0 512 512" version="1.1" xmlns="http://www.w3.org/2000/svg" xmlns:xlink="http://www.w3.org/1999/xlink" xml:space="preserve" xmlns:serif="http://www.serif.com/" style="fill-rule:evenodd;clip-rule:evenodd;stroke-linejoin:round;stroke-miterlimit:1.41421;">
    <path d="M256,8C119,8 8,119 8,256C8,393 119,504 256,504C393,504 504,393 504,256C504,119 393,8 256,8ZM400,284C400,290.6 394.6,296 388,296L296,296L296,388C296,394.6 290.6,400 284,400L228,400C221.4,400 216,394.6 216,388L216,296L124,296C117.4,296 112,290.6 112,284L112,228C112,221.4 117.4,216 124,216L216,216L216,124C216,117.4 221.4,112 228,112L284,112C290.6,112 296,117.4 296,124L296,216L388,216C394.6,216 400,221.4 400,228L400,284Z" style="fill:rgb(235,89,37);fill-rule:nonzero;"/>
</svg>
